<svg xmlns="http://www.w3.org/2000/svg" version="1.1" xmlns:xlink="http://www.w3.org/1999/xlink" height="100" width="100" viewbox="0 0 100 100" style="background-color: #FFF"><g transform="translate(50 50)"><g transform="translate(0, 50)"><g transform="scale(0.8)"><line style="stroke: #000; stroke-width: 2; fill: none; vector-effect: non-scaling-stroke" y1="0" x2="0" x1="0" y2="-50"></line><g transform="translate(0, -50)"><circle cy="0" style="stroke: #000; stroke-width: 2; fill: none; vector-effect: non-scaling-stroke" cx="0" r="20"></circle><g transform="scale(0.5942222542661723)"><g transform="rotate(-4.679782259888306)"><line style="stroke: #000; stroke-width: 2; fill: none; vector-effect: non-scaling-stroke" y1="0" x2="0" x1="0" y2="-50"></line><g transform="translate(0, -50)"><circle cy="0" style="stroke: #000; stroke-width: 2; fill: none; vector-effect: non-scaling-stroke" cx="0" r="20"></circle></g></g></g><g transform="scale(0.5815000734134731)"><g transform="rotate(-15.454716679695135)"><line style="stroke: #000; stroke-width: 2; fill: none; vector-effect: non-scaling-stroke" y1="0" x2="0" x1="0" y2="-50"></line><g transform="translate(0, -50)"><circle cy="0" style="stroke: #000; stroke-width: 2; fill: none; vector-effect: non-scaling-stroke" cx="0" r="20"></circle><g transform="scale(0.6884753938830748)"><g transform="rotate(26.65774073016864)"><line style="stroke: #000; stroke-width: 2; fill: none; vector-effect: non-scaling-stroke" y1="0" x2="0" x1="0" y2="-50"></line><g transform="translate(0, -50)"><circle cy="0" style="stroke: #000; stroke-width: 2; fill: none; vector-effect: non-scaling-stroke" cx="0" r="20"></circle><g transform="scale(0.7027332917051612)"><g transform="rotate(11.68036670189111)"><line style="stroke: #000; stroke-width: 2; fill: none; vector-effect: non-scaling-stroke" y1="0" x2="0" x1="0" y2="-50"></line><g transform="translate(0, -50)"><circle cy="0" style="stroke: #000; stroke-width: 2; fill: none; vector-effect: non-scaling-stroke" cx="0" r="20"></circle></g></g></g></g></g></g><g transform="scale(0.7010399522696503)"><g transform="rotate(35.52293311474642)"><line style="stroke: #000; stroke-width: 2; fill: none; vector-effect: non-scaling-stroke" y1="0" x2="0" x1="0" y2="-50"></line><g transform="translate(0, -50)"><circle cy="0" style="stroke: #000; stroke-width: 2; fill: none; vector-effect: non-scaling-stroke" cx="0" r="20"></circle><g transform="scale(0.453810665998446)"><g transform="rotate(-28.973473172916968)"><line style="stroke: #000; stroke-width: 2; fill: none; vector-effect: non-scaling-stroke" y1="0" x2="0" x1="0" y2="-50"></line><g transform="translate(0, -50)"><circle cy="0" style="stroke: #000; stroke-width: 2; fill: none; vector-effect: non-scaling-stroke" cx="0" r="20"></circle></g></g></g></g></g></g></g></g></g><g transform="scale(0.4409365540494739)"><g transform="rotate(-30.94645154832067)"><line style="stroke: #000; stroke-width: 2; fill: none; vector-effect: non-scaling-stroke" y1="0" x2="0" x1="0" y2="-50"></line><g transform="translate(0, -50)"><circle cy="0" style="stroke: #000; stroke-width: 2; fill: none; vector-effect: non-scaling-stroke" cx="0" r="20"></circle></g></g></g></g></g></g></g></svg>
