<svg xmlns="http://www.w3.org/2000/svg" version="1.1" xmlns:xlink="http://www.w3.org/1999/xlink" height="100" width="100" viewbox="0 0 100 100" style="background-color: #FFF"><g transform="translate(50 50)"><g transform="translate(0, 50)"><g transform="scale(0.8)"><line style="stroke: #000; stroke-width: 2; fill: none; vector-effect: non-scaling-stroke" y1="0" x2="0" x1="0" y2="-50"></line><g transform="translate(0, -50)"><circle cy="0" style="stroke: #000; stroke-width: 2; fill: none; vector-effect: non-scaling-stroke" cx="0" r="20"></circle><g transform="scale(0.4839449586182744)"><g transform="rotate(11.602355017112544)"><line style="stroke: #000; stroke-width: 2; fill: none; vector-effect: non-scaling-stroke" y1="0" x2="0" x1="0" y2="-50"></line><g transform="translate(0, -50)"><circle cy="0" style="stroke: #000; stroke-width: 2; fill: none; vector-effect: non-scaling-stroke" cx="0" r="20"></circle><g transform="scale(0.4868696848034943)"><g transform="rotate(-11.40237527745007)"><line style="stroke: #000; stroke-width: 2; fill: none; vector-effect: non-scaling-stroke" y1="0" x2="0" x1="0" y2="-50"></line><g transform="translate(0, -50)"><circle cy="0" style="stroke: #000; stroke-width: 2; fill: none; vector-effect: non-scaling-stroke" cx="0" r="20"></circle><g transform="scale(0.5948585619739487)"><g transform="rotate(3.906984549804477)"><line style="stroke: #000; stroke-width: 2; fill: none; vector-effect: non-scaling-stroke" y1="0" x2="0" x1="0" y2="-50"></line><g transform="translate(0, -50)"><circle cy="0" style="stroke: #000; stroke-width: 2; fill: none; vector-effect: non-scaling-stroke" cx="0" r="20"></circle></g></g></g><g transform="scale(0.5392993801446625)"><g transform="rotate(3.5465085477279885)"><line style="stroke: #000; stroke-width: 2; fill: none; vector-effect: non-scaling-stroke" y1="0" x2="0" x1="0" y2="-50"></line><g transform="translate(0, -50)"><circle cy="0" style="stroke: #000; stroke-width: 2; fill: none; vector-effect: non-scaling-stroke" cx="0" r="20"></circle><g transform="scale(0.6788152152549644)"><g transform="rotate(15.541555510350868)"><line style="stroke: #000; stroke-width: 2; fill: none; vector-effect: non-scaling-stroke" y1="0" x2="0" x1="0" y2="-50"></line><g transform="translate(0, -50)"><circle cy="0" style="stroke: #000; stroke-width: 2; fill: none; vector-effect: non-scaling-stroke" cx="0" r="20"></circle><g transform="scale(0.7795431846786022)"><g transform="rotate(-26.300840760987747)"><line style="stroke: #000; stroke-width: 2; fill: none; vector-effect: non-scaling-stroke" y1="0" x2="0" x1="0" y2="-50"></line><g transform="translate(0, -50)"><circle cy="0" style="stroke: #000; stroke-width: 2; fill: none; vector-effect: non-scaling-stroke" cx="0" r="20"></circle><g transform="scale(0.44455042658337063)"><g transform="rotate(-35.6245707435427)"><line style="stroke: #000; stroke-width: 2; fill: none; vector-effect: non-scaling-stroke" y1="0" x2="0" x1="0" y2="-50"></line><g transform="translate(0, -50)"><circle cy="0" style="stroke: #000; stroke-width: 2; fill: none; vector-effect: non-scaling-stroke" cx="0" r="20"></circle><g transform="scale(0.6406798655128498)"><g transform="rotate(32.48333405212138)"><line style="stroke: #000; stroke-width: 2; fill: none; vector-effect: non-scaling-stroke" y1="0" x2="0" x1="0" y2="-50"></line><g transform="translate(0, -50)"><circle cy="0" style="stroke: #000; stroke-width: 2; fill: none; vector-effect: non-scaling-stroke" cx="0" r="20"></circle><g transform="scale(0.7793369464953976)"><g transform="rotate(8.136947994873573)"><line style="stroke: #000; stroke-width: 2; fill: none; vector-effect: non-scaling-stroke" y1="0" x2="0" x1="0" y2="-50"></line><g transform="translate(0, -50)"><circle cy="0" style="stroke: #000; stroke-width: 2; fill: none; vector-effect: non-scaling-stroke" cx="0" r="20"></circle><g transform="scale(0.4271458236973402)"><g transform="rotate(3.831491935695148)"><line style="stroke: #000; stroke-width: 2; fill: none; vector-effect: non-scaling-stroke" y1="0" x2="0" x1="0" y2="-50"></line><g transform="translate(0, -50)"><circle cy="0" style="stroke: #000; stroke-width: 2; fill: none; vector-effect: non-scaling-stroke" cx="0" r="20"></circle><g transform="scale(0.5241292652778472)"><g transform="rotate(-38.08455917563283)"><line style="stroke: #000; stroke-width: 2; fill: none; vector-effect: non-scaling-stroke" y1="0" x2="0" x1="0" y2="-50"></line><g transform="translate(0, -50)"><circle cy="0" style="stroke: #000; stroke-width: 2; fill: none; vector-effect: non-scaling-stroke" cx="0" r="20"></circle><g transform="scale(0.4581215809749569)"><g transform="rotate(38.04264827462667)"><line style="stroke: #000; stroke-width: 2; fill: none; vector-effect: non-scaling-stroke" y1="0" x2="0" x1="0" y2="-50"></line><g transform="translate(0, -50)"><circle cy="0" style="stroke: #000; stroke-width: 2; fill: none; vector-effect: non-scaling-stroke" cx="0" r="20"></circle></g></g></g><g transform="scale(0.4954261274035212)"><g transform="rotate(35.214646162653494)"><line style="stroke: #000; stroke-width: 2; fill: none; vector-effect: non-scaling-stroke" y1="0" x2="0" x1="0" y2="-50"></line><g transform="translate(0, -50)"><circle cy="0" style="stroke: #000; stroke-width: 2; fill: none; vector-effect: non-scaling-stroke" cx="0" r="20"></circle></g></g></g></g></g></g></g></g></g><g transform="scale(0.6186102555503944)"><g transform="rotate(19.500836722165936)"><line style="stroke: #000; stroke-width: 2; fill: none; vector-effect: non-scaling-stroke" y1="0" x2="0" x1="0" y2="-50"></line><g transform="translate(0, -50)"><circle cy="0" style="stroke: #000; stroke-width: 2; fill: none; vector-effect: non-scaling-stroke" cx="0" r="20"></circle></g></g></g></g></g></g></g></g></g><g transform="scale(0.45394558228653015)"><g transform="rotate(2.7987436123913767)"><line style="stroke: #000; stroke-width: 2; fill: none; vector-effect: non-scaling-stroke" y1="0" x2="0" x1="0" y2="-50"></line><g transform="translate(0, -50)"><circle cy="0" style="stroke: #000; stroke-width: 2; fill: none; vector-effect: non-scaling-stroke" cx="0" r="20"></circle></g></g></g><g transform="scale(0.504754037153604)"><g transform="rotate(18.03976443056044)"><line style="stroke: #000; stroke-width: 2; fill: none; vector-effect: non-scaling-stroke" y1="0" x2="0" x1="0" y2="-50"></line><g transform="translate(0, -50)"><circle cy="0" style="stroke: #000; stroke-width: 2; fill: none; vector-effect: non-scaling-stroke" cx="0" r="20"></circle></g></g></g><g transform="scale(0.5060598257774095)"><g transform="rotate(36.55224533689038)"><line style="stroke: #000; stroke-width: 2; fill: none; vector-effect: non-scaling-stroke" y1="0" x2="0" x1="0" y2="-50"></line><g transform="translate(0, -50)"><circle cy="0" style="stroke: #000; stroke-width: 2; fill: none; vector-effect: non-scaling-stroke" cx="0" r="20"></circle><g transform="scale(0.793651709954965)"><g transform="rotate(21.675567607901996)"><line style="stroke: #000; stroke-width: 2; fill: none; vector-effect: non-scaling-stroke" y1="0" x2="0" x1="0" y2="-50"></line><g transform="translate(0, -50)"><circle cy="0" style="stroke: #000; stroke-width: 2; fill: none; vector-effect: non-scaling-stroke" cx="0" r="20"></circle><g transform="scale(0.5097311839843144)"><g transform="rotate(-30.811278412704127)"><line style="stroke: #000; stroke-width: 2; fill: none; vector-effect: non-scaling-stroke" y1="0" x2="0" x1="0" y2="-50"></line><g transform="translate(0, -50)"><circle cy="0" style="stroke: #000; stroke-width: 2; fill: none; vector-effect: non-scaling-stroke" cx="0" r="20"></circle></g></g></g></g></g></g></g></g></g></g></g></g></g></g></g><g transform="scale(0.628949766117277)"><g transform="rotate(-6.947760147183629)"><line style="stroke: #000; stroke-width: 2; fill: none; vector-effect: non-scaling-stroke" y1="0" x2="0" x1="0" y2="-50"></line><g transform="translate(0, -50)"><circle cy="0" style="stroke: #000; stroke-width: 2; fill: none; vector-effect: non-scaling-stroke" cx="0" r="20"></circle></g></g></g></g></g></g></g></g></g><g transform="scale(0.5534791138619286)"><g transform="rotate(-13.040593569027259)"><line style="stroke: #000; stroke-width: 2; fill: none; vector-effect: non-scaling-stroke" y1="0" x2="0" x1="0" y2="-50"></line><g transform="translate(0, -50)"><circle cy="0" style="stroke: #000; stroke-width: 2; fill: none; vector-effect: non-scaling-stroke" cx="0" r="20"></circle><g transform="scale(0.4743150007201216)"><g transform="rotate(25.266886771129123)"><line style="stroke: #000; stroke-width: 2; fill: none; vector-effect: non-scaling-stroke" y1="0" x2="0" x1="0" y2="-50"></line><g transform="translate(0, -50)"><circle cy="0" style="stroke: #000; stroke-width: 2; fill: none; vector-effect: non-scaling-stroke" cx="0" r="20"></circle><g transform="scale(0.6309478094403174)"><g transform="rotate(-33.03245372439986)"><line style="stroke: #000; stroke-width: 2; fill: none; vector-effect: non-scaling-stroke" y1="0" x2="0" x1="0" y2="-50"></line><g transform="translate(0, -50)"><circle cy="0" style="stroke: #000; stroke-width: 2; fill: none; vector-effect: non-scaling-stroke" cx="0" r="20"></circle><g transform="scale(0.429692797372427)"><g transform="rotate(-9.759688757155729)"><line style="stroke: #000; stroke-width: 2; fill: none; vector-effect: non-scaling-stroke" y1="0" x2="0" x1="0" y2="-50"></line><g transform="translate(0, -50)"><circle cy="0" style="stroke: #000; stroke-width: 2; fill: none; vector-effect: non-scaling-stroke" cx="0" r="20"></circle><g transform="scale(0.7636267342254446)"><g transform="rotate(-0.5095749387611264)"><line style="stroke: #000; stroke-width: 2; fill: none; vector-effect: non-scaling-stroke" y1="0" x2="0" x1="0" y2="-50"></line><g transform="translate(0, -50)"><circle cy="0" style="stroke: #000; stroke-width: 2; fill: none; vector-effect: non-scaling-stroke" cx="0" r="20"></circle></g></g></g></g></g></g></g></g></g></g></g></g><g transform="scale(0.7469245023294601)"><g transform="rotate(27.402825023226768)"><line style="stroke: #000; stroke-width: 2; fill: none; vector-effect: non-scaling-stroke" y1="0" x2="0" x1="0" y2="-50"></line><g transform="translate(0, -50)"><circle cy="0" style="stroke: #000; stroke-width: 2; fill: none; vector-effect: non-scaling-stroke" cx="0" r="20"></circle><g transform="scale(0.5295481397726572)"><g transform="rotate(-31.432739939976663)"><line style="stroke: #000; stroke-width: 2; fill: none; vector-effect: non-scaling-stroke" y1="0" x2="0" x1="0" y2="-50"></line><g transform="translate(0, -50)"><circle cy="0" style="stroke: #000; stroke-width: 2; fill: none; vector-effect: non-scaling-stroke" cx="0" r="20"></circle><g transform="scale(0.5075631840484358)"><g transform="rotate(-37.29312800787503)"><line style="stroke: #000; stroke-width: 2; fill: none; vector-effect: non-scaling-stroke" y1="0" x2="0" x1="0" y2="-50"></line><g transform="translate(0, -50)"><circle cy="0" style="stroke: #000; stroke-width: 2; fill: none; vector-effect: non-scaling-stroke" cx="0" r="20"></circle></g></g></g></g></g></g></g></g></g></g></g></g></g></g></g></g></g></g></g></g></g></g></svg>
